# xmcd CD database file
#
# Track frame offsets:
#	150
#	19954
#	38764
#	62184
#
# Disc length: 1326 seconds
#
# Revision: 2
# Processed by: cddbd v1.5.2PL0 Copyright (c) Steve Scherf et al.
# Submitted via: CDex 1.70beta2
#
DISCID=2f052c04
DTITLE=Mavericks - Dance The Night Away
DYEAR=1997
DGENRE=Country
TTITLE0=Dance The Night Away
TTITLE1=All I Get
TTITLE2=Panatella
TTITLE3=Data: Video for Dance The Night Away
EXTD=\n YEAR: 1997
EXTT0=
EXTT1=
EXTT2=
EXTT3=
PLAYORDER=
